<svg width="224" height="224" viewBox="0 0 224 224" fill="none" xmlns="http://www.w3.org/2000/svg">
<path d="M224 0H0V224H224V0Z" fill="black"/>
<path d="M147.744 86.4241C151.138 86.4241 154.531 86.4241 158 86.4241C158 103.46 158 120.452 158 137.542C154.626 137.542 151.28 137.542 147.819 137.542C147.819 139.283 147.819 140.931 147.819 142.69C144.362 142.69 141.018 142.69 137.59 142.69C137.59 144.421 137.59 146.039 137.59 147.783C134.168 147.783 130.828 147.783 127.406 147.783C127.406 149.526 127.406 151.145 127.406 152.881C123.982 152.881 120.642 152.881 117.189 152.881C117.189 154.641 117.189 156.286 117.189 158.008C113.705 158.008 110.334 158.008 106.848 158.008C106.848 156.322 106.848 154.677 106.848 152.954C103.419 152.954 100.102 152.954 96.6249 152.954C96.6249 151.164 96.6249 149.448 96.6249 147.733L96.6063 147.753C100.017 147.753 103.427 147.753 106.936 147.753C106.936 149.519 106.936 151.138 106.936 152.796C108.674 152.796 110.312 152.796 111.932 152.796C111.932 139.155 111.932 125.596 111.932 111.945C110.215 111.945 108.568 111.945 106.82 111.945C106.82 110.242 106.82 108.628 106.82 106.891C103.378 106.891 100.035 106.891 96.5953 106.891C96.5953 105.106 96.5953 103.446 96.5953 101.786C100.009 101.786 103.422 101.786 106.947 101.786C106.947 103.507 106.947 105.121 106.947 106.765C110.367 106.765 113.675 106.765 117.086 106.765C117.086 105.08 117.086 103.462 117.086 101.724C120.533 101.724 123.877 101.724 127.356 101.724C127.356 99.9629 127.356 98.3233 127.356 96.5799C130.833 96.5799 134.175 96.5799 137.613 96.5799C137.613 94.8265 137.613 93.1793 137.613 91.4107C141.049 91.4107 144.387 91.4107 147.773 91.4107C147.773 89.6563 147.773 88.0276 147.773 86.399L147.744 86.4241Z" fill="white"/>
<path d="M76.2565 137.541C72.8636 137.541 69.4718 137.541 66.0013 137.541C66.0013 120.512 66.0013 103.525 66.0013 86.4241C69.4292 86.4241 72.8429 86.4241 76.2565 86.4241L76.227 86.3979C76.227 88.0746 76.227 89.7514 76.227 91.5354C79.714 91.5354 83.0445 91.5354 86.444 91.5354C86.444 93.3029 86.444 94.9589 86.444 96.616C83.062 96.616 79.6812 96.616 76.1647 96.616C76.1647 94.8933 76.1647 93.2548 76.1647 91.6272C74.4135 91.6272 72.8002 91.6272 71.1694 91.6272C71.1694 105.244 71.1694 118.789 71.1694 132.459C72.891 132.459 74.5349 132.459 76.2281 132.459C76.2281 134.244 76.2281 135.906 76.2281 137.567L76.2565 137.541Z" fill="white"/>
<path d="M96.6238 76.2334C96.6238 74.5424 96.6238 72.8514 96.6238 71.0478C100.052 71.0478 103.393 71.0478 106.816 71.0478C106.816 69.3153 106.816 67.6954 106.816 65.9924C110.272 65.9924 113.646 65.9924 117.143 65.9924C117.143 67.6538 117.143 69.2945 117.143 71.0128C120.582 71.0128 123.898 71.0128 127.375 71.0128C127.375 72.8033 127.375 74.5184 127.375 76.2334L127.394 76.2126C123.987 76.2126 120.579 76.2126 117.044 76.2126C117.044 74.4396 117.044 72.7979 117.044 71.1484C113.612 71.1484 110.311 71.1484 106.888 71.1484C106.888 72.8679 106.888 74.5118 106.888 76.2126C103.378 76.2126 99.9916 76.2126 96.6052 76.2126L96.6238 76.2334Z" fill="white"/>
<path d="M76.2566 86.4241C76.2566 84.7386 76.2566 83.0531 76.2566 81.2615C79.6374 81.2615 82.9779 81.2615 86.409 81.2615C86.409 79.5432 86.409 77.9288 86.409 76.2334C89.8741 76.2334 93.2495 76.2334 96.6238 76.2334L96.6052 76.2126C96.6052 77.8927 96.6052 79.5727 96.6052 81.3763C93.1664 81.3763 89.826 81.3763 86.3937 81.3763C86.3937 83.1154 86.3937 84.731 86.3937 86.399C82.9406 86.399 79.5838 86.399 76.226 86.399L76.2566 86.4241Z" fill="white"/>
<path d="M127.375 76.2334C130.729 76.2334 134.081 76.2334 137.526 76.2334C137.526 77.8511 137.526 79.4666 137.526 81.1926C140.95 81.1926 144.287 81.1926 147.743 81.1926C147.743 83.0094 147.743 84.7167 147.743 86.4241L147.772 86.3979C144.391 86.3979 141.009 86.3979 137.54 86.3979C137.54 84.6533 137.54 83.0345 137.54 81.3042C134.106 81.3042 130.762 81.3042 127.394 81.3042C127.394 79.529 127.394 77.8697 127.394 76.2115L127.375 76.2334Z" fill="white"/>
<path d="M96.6238 147.733C93.2703 147.733 89.9179 147.733 86.4736 147.733C86.4736 146.115 86.4736 144.499 86.4736 142.773C83.0489 142.773 79.7118 142.773 76.2566 142.773C76.2566 140.957 76.2566 139.249 76.2566 137.542L76.2271 137.568C79.6079 137.568 82.9899 137.568 86.4593 137.568C86.4593 139.313 86.4593 140.93 86.4593 142.662C89.8927 142.662 93.2375 142.662 96.6052 142.662C96.6052 144.437 96.6052 146.096 96.6052 147.754L96.6238 147.733Z" fill="white"/>
<path d="M86.4123 96.582C89.7822 96.582 93.1521 96.582 96.6293 96.582C96.6293 98.3966 96.6293 100.103 96.6293 101.81C93.2757 101.81 89.9233 101.81 86.4123 101.81C86.4123 100.011 86.4123 98.296 86.4123 96.582Z" fill="white"/>
</svg>
