<svg width="224" height="224" viewBox="0 0 224 224" fill="none" xmlns="http://www.w3.org/2000/svg">
<path d="M224 0H0V224H224V0Z" fill="white"/>
<path d="M147.744 86.4227C151.138 86.4227 154.531 86.4227 158.001 86.4227C158.001 103.459 158.001 120.452 158.001 137.543C154.626 137.543 151.28 137.543 147.819 137.543C147.819 139.285 147.819 140.933 147.819 142.692C144.362 142.692 141.018 142.692 137.59 142.692C137.59 144.422 137.59 146.041 137.59 147.785C134.167 147.785 130.828 147.785 127.405 147.785C127.405 149.528 127.405 151.147 127.405 152.883C123.981 152.883 120.641 152.883 117.188 152.883C117.188 154.643 117.188 156.288 117.188 158.01C113.704 158.01 110.332 158.01 106.846 158.01C106.846 156.324 106.846 154.679 106.846 152.956C103.417 152.956 100.1 152.956 96.6223 152.956C96.6223 151.166 96.6223 149.45 96.6223 147.735L96.6037 147.755C100.014 147.755 103.425 147.755 106.934 147.755C106.934 149.521 106.934 151.14 106.934 152.798C108.672 152.798 110.311 152.798 111.931 152.798C111.931 139.157 111.931 125.596 111.931 111.945C110.213 111.945 108.566 111.945 106.818 111.945C106.818 110.242 106.818 108.628 106.818 106.891C103.376 106.891 100.033 106.891 96.5928 106.891C96.5928 105.105 96.5928 103.445 96.5928 101.786C100.007 101.786 103.419 101.786 106.945 101.786C106.945 103.506 106.945 105.121 106.945 106.765C110.365 106.765 113.673 106.765 117.085 106.765C117.085 105.079 117.085 103.461 117.085 101.723C120.531 101.723 123.876 101.723 127.355 101.723C127.355 99.9622 127.355 98.3226 127.355 96.579C130.832 96.579 134.175 96.579 137.613 96.579C137.613 94.8256 137.613 93.1783 137.613 91.4095C141.049 91.4095 144.387 91.4095 147.773 91.4095C147.773 89.655 147.773 88.0263 147.773 86.3976L147.744 86.4227Z" fill="black"/>
<path d="M76.2539 137.542C72.8608 137.542 69.4688 137.542 65.998 137.542C65.998 120.512 65.998 103.525 65.998 86.4227C69.4261 86.4227 72.84 86.4227 76.2539 86.4227L76.2243 86.3965C76.2243 88.0733 76.2243 89.7502 76.2243 91.5342C79.7115 91.5342 83.0433 91.5342 86.4419 91.5342C86.4419 93.3019 86.4419 94.9579 86.4419 96.6151C83.0597 96.6151 79.6787 96.6151 76.162 96.6151C76.162 94.8923 76.162 93.2537 76.162 91.6261C74.4108 91.6261 72.7973 91.6261 71.1664 91.6261C71.1664 105.243 71.1664 118.789 71.1664 132.46C72.8881 132.46 74.5322 132.46 76.2254 132.46C76.2254 134.245 76.2254 135.907 76.2254 137.568L76.2539 137.542Z" fill="black"/>
<path d="M96.6221 76.2314C96.6221 74.5403 96.6221 72.8493 96.6221 71.0455C100.05 71.0455 103.392 71.0455 106.814 71.0455C106.814 69.3129 106.814 67.6929 106.814 65.9898C110.271 65.9898 113.646 65.9898 117.143 65.9898C117.143 67.6513 117.143 69.2921 117.143 71.0105C120.582 71.0105 123.898 71.0105 127.375 71.0105C127.375 72.8011 127.375 74.5163 127.375 76.2314L127.394 76.2106C123.987 76.2106 120.578 76.2106 117.043 76.2106C117.043 74.4375 117.043 72.7957 117.043 71.1462C113.612 71.1462 110.31 71.1462 106.887 71.1462C106.887 72.8657 106.887 74.5097 106.887 76.2106C103.377 76.2106 99.99 76.2106 96.6035 76.2106L96.6221 76.2314Z" fill="black"/>
<path d="M76.2533 86.4227C76.2533 84.7371 76.2533 83.0515 76.2533 81.2598C79.6343 81.2598 82.9749 81.2598 86.4063 81.2598C86.4063 79.5414 86.4063 77.9269 86.4063 76.2314C89.8716 76.2314 93.2472 76.2314 96.6216 76.2314L96.603 76.2106C96.603 77.8908 96.603 79.5709 96.603 81.3746C93.164 81.3746 89.8234 81.3746 86.391 81.3746C86.391 83.1138 86.391 84.7294 86.391 86.3975C82.9377 86.3975 79.5807 86.3975 76.2227 86.3975L76.2533 86.4227Z" fill="black"/>
<path d="M127.375 76.2314C130.729 76.2314 134.081 76.2314 137.526 76.2314C137.526 77.8492 137.526 79.4648 137.526 81.1909C140.951 81.1909 144.288 81.1909 147.743 81.1909C147.743 83.0077 147.743 84.7152 147.743 86.4227L147.773 86.3964C144.392 86.3964 141.01 86.3964 137.54 86.3964C137.54 84.6518 137.54 83.0329 137.54 81.3024C134.106 81.3024 130.762 81.3024 127.394 81.3024C127.394 79.5271 127.394 77.8678 127.394 76.2095L127.375 76.2314Z" fill="black"/>
<path d="M96.6225 147.735C93.2688 147.735 89.9162 147.735 86.4717 147.735C86.4717 146.117 86.4717 144.501 86.4717 142.775C83.0469 142.775 79.7096 142.775 76.2541 142.775C76.2541 140.958 76.2541 139.251 76.2541 137.543L76.2246 137.569C79.6057 137.569 82.9878 137.569 86.4575 137.569C86.4575 139.314 86.4575 140.932 86.4575 142.663C89.891 142.663 93.236 142.663 96.6039 142.663C96.6039 144.439 96.6039 146.098 96.6039 147.756L96.6225 147.735Z" fill="black"/>
<path d="M86.4092 96.5812C89.7793 96.5812 93.1494 96.5812 96.6267 96.5812C96.6267 98.3959 96.6267 100.102 96.6267 101.81C93.273 101.81 89.9204 101.81 86.4092 101.81C86.4092 100.01 86.4092 98.2952 86.4092 96.5812Z" fill="black"/>
</svg>
